<svg x="-11" y="-8" width="1060.000000" height="102.500000">
    <rect x="48.726843" y="0.000000" width="182.482163" height="10.000000" fill="#ffdd55" stroke-width="0"/>
    <rect x="280.245717" y="0.000000" width="156.247140" height="10.000000" fill="#ffdd55" stroke-width="0"/>
    <rect x="472.011646" y="0.000000" width="127.945718" height="10.000000" fill="#ffdd55" stroke-width="0"/>
    <rect x="632.458819" y="0.000000" width="98.669698" height="10.000000" fill="#ffdd55" stroke-width="0"/>
    <rect x="831.712474" y="0.000000" width="43.236250" height="10.000000" fill="#ffdd55" stroke-width="0"/>
    <rect x="986.733750" y="0.000000" width="13.266250" height="10.000000" fill="#8dd35f" stroke-width="0"/>
    <rect x="48.726335" y="10.000000" width="183.985802" height="10.000000" fill="#ffdd55" stroke-width="0"/>
    <rect x="281.156940" y="10.000000" width="151.997545" height="10.000000" fill="#ffdd55" stroke-width="0"/>
    <rect x="472.011849" y="10.000000" width="128.599682" height="10.000000" fill="#ffdd55" stroke-width="0"/>
    <rect x="751.047342" y="10.000000" width="58.386797" height="10.000000" fill="#ffdd55" stroke-width="0"/>
    <rect x="892.401804" y="10.000000" width="36.616582" height="10.000000" fill="#ffdd55" stroke-width="0"/>
    <rect x="48.726335" y="20.000000" width="182.229170" height="10.000000" fill="#ffdd55" stroke-width="0"/>
    <rect x="280.244702" y="20.000000" width="150.632437" height="10.000000" fill="#ffdd55" stroke-width="0"/>
    <rect x="632.458819" y="20.000000" width="98.790965" height="10.000000" fill="#ffdd55" stroke-width="0"/>
    <rect x="831.713896" y="20.000000" width="41.887393" height="10.000000" fill="#ffdd55" stroke-width="0"/>
    <rect x="48.724507" y="30.000000" width="186.816158" height="10.000000" fill="#ffdd55" stroke-width="0"/>
    <rect x="281.655004" y="30.000000" width="163.007575" height="10.000000" fill="#ffdd55" stroke-width="0"/>
    <rect x="472.011646" y="30.000000" width="101.358983" height="10.000000" fill="#ffdd55" stroke-width="0"/>
    <rect x="632.459733" y="30.000000" width="68.570613" height="10.000000" fill="#ffdd55" stroke-width="0"/>
    <rect x="751.048561" y="30.000000" width="56.406929" height="10.000000" fill="#ffdd55" stroke-width="0"/>
    <rect x="831.713083" y="30.000000" width="44.766295" height="10.000000" fill="#ffdd55" stroke-width="0"/>
    <rect x="48.725522" y="40.000000" width="175.544603" height="10.000000" fill="#ffdd55" stroke-width="0"/>
    <rect x="224.270430" y="40.000000" width="106.471762" height="10.000000" fill="#ffdd55" stroke-width="0"/>
    <rect x="330.742497" y="40.000000" width="133.332819" height="10.000000" fill="#ffdd55" stroke-width="0"/>
    <rect x="472.011138" y="40.000000" width="126.958019" height="10.000000" fill="#ffdd55" stroke-width="0"/>
    <rect x="632.459733" y="40.000000" width="77.557509" height="10.000000" fill="#ffdd55" stroke-width="0"/>
    <rect x="751.046733" y="40.000000" width="80.457029" height="10.000000" fill="#ffdd55" stroke-width="0"/>
    <rect x="0.039406" y="50.000000" width="48.683171" height="10.000000" fill="#d38d5f" stroke-width="0"/>
    <rect x="48.725218" y="50.000000" width="186.284577" height="10.000000" fill="#ffdd55" stroke-width="0"/>
    <rect x="235.009998" y="50.000000" width="45.232570" height="10.000000" fill="#d38d5f" stroke-width="0"/>
    <rect x="280.319350" y="50.000000" width="152.101240" height="10.000000" fill="#ffdd55" stroke-width="0"/>
    <rect x="432.420794" y="50.000000" width="39.586891" height="10.000000" fill="#d38d5f" stroke-width="0"/>
    <rect x="472.010427" y="50.000000" width="126.822026" height="10.000000" fill="#ffdd55" stroke-width="0"/>
    <rect x="598.832656" y="50.000000" width="33.623116" height="10.000000" fill="#d38d5f" stroke-width="0"/>
    <rect x="632.458413" y="50.000000" width="89.714489" height="10.000000" fill="#ffdd55" stroke-width="0"/>
    <rect x="722.173105" y="50.000000" width="28.871495" height="10.000000" fill="#d38d5f" stroke-width="0"/>
    <rect x="751.046631" y="50.000000" width="56.034803" height="10.000000" fill="#ffdd55" stroke-width="0"/>
    <rect x="807.081637" y="50.000000" width="24.629516" height="10.000000" fill="#d38d5f" stroke-width="0"/>
    <rect x="831.712677" y="50.000000" width="41.746525" height="10.000000" fill="#ffdd55" stroke-width="0"/>
    <rect x="873.459405" y="50.000000" width="18.941079" height="10.000000" fill="#d38d5f" stroke-width="0"/>
    <rect x="892.401905" y="50.000000" width="34.837199" height="10.000000" fill="#ffdd55" stroke-width="0"/>
    <rect x="927.239308" y="50.000000" width="13.475165" height="10.000000" fill="#d38d5f" stroke-width="0"/>
    <rect x="940.715590" y="50.000000" width="21.540378" height="10.000000" fill="#ffdd55" stroke-width="0"/>
    <rect x="962.256070" y="50.000000" width="8.211565" height="10.000000" fill="#d38d5f" stroke-width="0"/>
    <rect x="970.467838" y="50.000000" width="12.890163" height="10.000000" fill="#ffdd55" stroke-width="0"/>
    <rect x="983.358204" y="50.000000" width="3.373209" height="10.000000" fill="#d38d5f" stroke-width="0"/>
    <rect x="48.727249" y="60.000000" width="177.372533" height="10.000000" fill="#ffdd55" stroke-width="0"/>
    <rect x="280.244194" y="60.000000" width="168.014424" height="10.000000" fill="#ffdd55" stroke-width="0"/>
    <rect x="472.010528" y="60.000000" width="124.630806" height="10.000000" fill="#ffdd55" stroke-width="0"/>
    <rect x="632.457905" y="60.000000" width="94.706307" height="10.000000" fill="#ffdd55" stroke-width="0"/>
    <rect x="940.717317" y="60.000000" width="21.202174" height="10.000000" fill="#ffdd55" stroke-width="0"/>
    <rect x="48.725522" y="70.000000" width="180.976595" height="10.000000" fill="#ffdd55" stroke-width="0"/>
    <rect x="280.244295" y="70.000000" width="147.861699" height="10.000000" fill="#ffdd55" stroke-width="0"/>
    <rect x="472.010630" y="70.000000" width="126.102554" height="10.000000" fill="#ffdd55" stroke-width="0"/>
    <rect x="751.046428" y="70.000000" width="79.412759" height="10.000000" fill="#ffdd55" stroke-width="0"/>
    <rect x="892.402108" y="70.000000" width="32.882113" height="10.000000" fill="#ffdd55" stroke-width="0"/>
<line x1="0" y1="90.900000" x2="1020.000000" y2="90.900000"                      style="stroke:rgb(0,0,0);stroke-width:1"/>
<text x="1010.000000" y="8.000000" style="font-size:6pt">Thread 0</text>
<text x="1010.000000" y="18.000000" style="font-size:6pt">Thread 1</text>
<text x="1010.000000" y="28.000000" style="font-size:6pt">Thread 2</text>
<text x="1010.000000" y="38.000000" style="font-size:6pt">Thread 3</text>
<text x="1010.000000" y="48.000000" style="font-size:6pt">Thread 4</text>
<text x="1010.000000" y="58.000000" style="font-size:6pt">Thread 5</text>
<text x="1010.000000" y="68.000000" style="font-size:6pt">Thread 6</text>
<text x="1010.000000" y="78.000000" style="font-size:6pt">Thread 7</text>
<text x="0" y="101.500000" style="font-size:6pt">Time (usec.)</text>
<line x1="100.000000" y1="89.900000" x2="100.000000" y2="91.900000"                      style="stroke:rgb(0,0,0);stroke-width:0.5"/>
<text x="100.000000" y="97.900000" style="font-size:6pt"> 984611 </text>
<line x1="200.000000" y1="89.900000" x2="200.000000" y2="91.900000"                      style="stroke:rgb(0,0,0);stroke-width:0.5"/>
<text x="200.000000" y="97.900000" style="font-size:6pt"> 1969223 </text>
<line x1="300.000000" y1="89.900000" x2="300.000000" y2="91.900000"                      style="stroke:rgb(0,0,0);stroke-width:0.5"/>
<text x="300.000000" y="97.900000" style="font-size:6pt"> 2953834 </text>
<line x1="400.000000" y1="89.900000" x2="400.000000" y2="91.900000"                      style="stroke:rgb(0,0,0);stroke-width:0.5"/>
<text x="400.000000" y="97.900000" style="font-size:6pt"> 3938445 </text>
<line x1="500.000000" y1="89.900000" x2="500.000000" y2="91.900000"                      style="stroke:rgb(0,0,0);stroke-width:0.5"/>
<text x="500.000000" y="97.900000" style="font-size:6pt"> 4923056 </text>
<line x1="600.000000" y1="89.900000" x2="600.000000" y2="91.900000"                      style="stroke:rgb(0,0,0);stroke-width:0.5"/>
<text x="600.000000" y="97.900000" style="font-size:6pt"> 5907668 </text>
<line x1="700.000000" y1="89.900000" x2="700.000000" y2="91.900000"                      style="stroke:rgb(0,0,0);stroke-width:0.5"/>
<text x="700.000000" y="97.900000" style="font-size:6pt"> 6892279 </text>
<line x1="800.000000" y1="89.900000" x2="800.000000" y2="91.900000"                      style="stroke:rgb(0,0,0);stroke-width:0.5"/>
<text x="800.000000" y="97.900000" style="font-size:6pt"> 7876890 </text>
<line x1="900.000000" y1="89.900000" x2="900.000000" y2="91.900000"                      style="stroke:rgb(0,0,0);stroke-width:0.5"/>
<text x="900.000000" y="97.900000" style="font-size:6pt"> 8861502 </text>
<line x1="1000.000000" y1="89.900000" x2="1000.000000" y2="91.900000"                      style="stroke:rgb(0,0,0);stroke-width:0.5"/>
<text x="1000.000000" y="97.900000" style="font-size:6pt"> 9846113 </text>
</svg>
