<svg x="-11" y="-8" width="1060.000000" height="102.500000">
    <rect x="44.569142" y="0.000000" width="155.264607" height="10.000000" fill="#ffdd55" stroke-width="0"/>
    <rect x="199.833750" y="0.000000" width="70.304697" height="10.000000" fill="#ffdd55" stroke-width="0"/>
    <rect x="310.332368" y="0.000000" width="147.624193" height="10.000000" fill="#ffdd55" stroke-width="0"/>
    <rect x="494.798919" y="0.000000" width="102.642506" height="10.000000" fill="#ffdd55" stroke-width="0"/>
    <rect x="638.277274" y="0.000000" width="83.646964" height="10.000000" fill="#ffdd55" stroke-width="0"/>
    <rect x="752.770380" y="0.000000" width="52.032739" height="10.000000" fill="#ffdd55" stroke-width="0"/>
    <rect x="843.097268" y="0.000000" width="38.838560" height="10.000000" fill="#ffdd55" stroke-width="0"/>
    <rect x="906.007700" y="0.000000" width="28.655450" height="10.000000" fill="#ffdd55" stroke-width="0"/>
    <rect x="946.147515" y="0.000000" width="21.111918" height="10.000000" fill="#ffdd55" stroke-width="0"/>
    <rect x="974.738618" y="0.000000" width="11.599737" height="10.000000" fill="#ffdd55" stroke-width="0"/>
    <rect x="989.498690" y="0.000000" width="10.501310" height="10.000000" fill="#8dd35f" stroke-width="0"/>
    <rect x="44.569142" y="10.000000" width="149.913127" height="10.000000" fill="#ffdd55" stroke-width="0"/>
    <rect x="270.139534" y="10.000000" width="40.191746" height="10.000000" fill="#d38d5f" stroke-width="0"/>
    <rect x="310.333546" y="10.000000" width="134.095774" height="10.000000" fill="#ffdd55" stroke-width="0"/>
    <rect x="494.799735" y="10.000000" width="107.421118" height="10.000000" fill="#ffdd55" stroke-width="0"/>
    <rect x="638.277274" y="10.000000" width="82.520169" height="10.000000" fill="#ffdd55" stroke-width="0"/>
    <rect x="752.668059" y="10.000000" width="69.842850" height="10.000000" fill="#ffdd55" stroke-width="0"/>
    <rect x="843.095818" y="10.000000" width="38.487099" height="10.000000" fill="#ffdd55" stroke-width="0"/>
    <rect x="906.009512" y="10.000000" width="27.338787" height="10.000000" fill="#ffdd55" stroke-width="0"/>
    <rect x="946.147968" y="10.000000" width="19.952860" height="10.000000" fill="#ffdd55" stroke-width="0"/>
    <rect x="986.339262" y="10.000000" width="3.086291" height="10.000000" fill="#d38d5f" stroke-width="0"/>
    <rect x="0.001903" y="20.000000" width="44.564158" height="10.000000" fill="#d38d5f" stroke-width="0"/>
    <rect x="44.568417" y="20.000000" width="165.667765" height="10.000000" fill="#ffdd55" stroke-width="0"/>
    <rect x="310.333818" y="20.000000" width="142.435121" height="10.000000" fill="#ffdd55" stroke-width="0"/>
    <rect x="494.799282" y="20.000000" width="105.985187" height="10.000000" fill="#ffdd55" stroke-width="0"/>
    <rect x="638.276821" y="20.000000" width="88.530253" height="10.000000" fill="#ffdd55" stroke-width="0"/>
    <rect x="752.667243" y="20.000000" width="49.583300" height="10.000000" fill="#ffdd55" stroke-width="0"/>
    <rect x="843.098083" y="20.000000" width="37.683580" height="10.000000" fill="#ffdd55" stroke-width="0"/>
    <rect x="906.008968" y="20.000000" width="27.611309" height="10.000000" fill="#ffdd55" stroke-width="0"/>
    <rect x="44.568145" y="30.000000" width="149.401797" height="10.000000" fill="#ffdd55" stroke-width="0"/>
    <rect x="310.334361" y="30.000000" width="136.422953" height="10.000000" fill="#ffdd55" stroke-width="0"/>
    <rect x="494.799826" y="30.000000" width="108.746663" height="10.000000" fill="#ffdd55" stroke-width="0"/>
    <rect x="638.276640" y="30.000000" width="64.612450" height="10.000000" fill="#ffdd55" stroke-width="0"/>
    <rect x="752.667606" y="30.000000" width="54.611868" height="10.000000" fill="#ffdd55" stroke-width="0"/>
    <rect x="843.098718" y="30.000000" width="43.743600" height="10.000000" fill="#ffdd55" stroke-width="0"/>
    <rect x="44.569052" y="40.000000" width="154.356320" height="10.000000" fill="#ffdd55" stroke-width="0"/>
    <rect x="310.334361" y="40.000000" width="139.066701" height="10.000000" fill="#ffdd55" stroke-width="0"/>
    <rect x="494.800007" y="40.000000" width="113.416520" height="10.000000" fill="#ffdd55" stroke-width="0"/>
    <rect x="638.276821" y="40.000000" width="89.657138" height="10.000000" fill="#ffdd55" stroke-width="0"/>
    <rect x="752.666700" y="40.000000" width="69.991391" height="10.000000" fill="#ffdd55" stroke-width="0"/>
    <rect x="967.260340" y="40.000000" width="7.475559" height="10.000000" fill="#d38d5f" stroke-width="0"/>
    <rect x="44.567692" y="50.000000" width="152.984917" height="10.000000" fill="#ffdd55" stroke-width="0"/>
    <rect x="310.333818" y="50.000000" width="136.023550" height="10.000000" fill="#ffdd55" stroke-width="0"/>
    <rect x="494.798919" y="50.000000" width="112.331505" height="10.000000" fill="#ffdd55" stroke-width="0"/>
    <rect x="638.275371" y="50.000000" width="66.318275" height="10.000000" fill="#ffdd55" stroke-width="0"/>
    <rect x="44.568780" y="60.000000" width="144.349031" height="10.000000" fill="#ffdd55" stroke-width="0"/>
    <rect x="310.334271" y="60.000000" width="129.478935" height="10.000000" fill="#ffdd55" stroke-width="0"/>
    <rect x="457.957467" y="60.000000" width="36.839277" height="10.000000" fill="#d38d5f" stroke-width="0"/>
    <rect x="494.798919" y="60.000000" width="111.684503" height="10.000000" fill="#ffdd55" stroke-width="0"/>
    <rect x="44.568689" y="70.000000" width="156.774310" height="10.000000" fill="#ffdd55" stroke-width="0"/>
    <rect x="310.334271" y="70.000000" width="140.023475" height="10.000000" fill="#ffdd55" stroke-width="0"/>
    <rect x="608.217433" y="70.000000" width="30.056126" height="10.000000" fill="#d38d5f" stroke-width="0"/>
    <rect x="727.935499" y="70.000000" width="24.730022" height="10.000000" fill="#d38d5f" stroke-width="0"/>
    <rect x="822.658816" y="70.000000" width="20.435824" height="10.000000" fill="#d38d5f" stroke-width="0"/>
    <rect x="886.843224" y="70.000000" width="19.162844" height="10.000000" fill="#d38d5f" stroke-width="0"/>
    <rect x="934.663965" y="70.000000" width="11.481738" height="10.000000" fill="#d38d5f" stroke-width="0"/>
<line x1="0" y1="90.900000" x2="1020.000000" y2="90.900000"                      style="stroke:rgb(0,0,0);stroke-width:1"/>
<text x="1010.000000" y="8.000000" style="font-size:6pt">Thread 0</text>
<text x="1010.000000" y="18.000000" style="font-size:6pt">Thread 1</text>
<text x="1010.000000" y="28.000000" style="font-size:6pt">Thread 2</text>
<text x="1010.000000" y="38.000000" style="font-size:6pt">Thread 3</text>
<text x="1010.000000" y="48.000000" style="font-size:6pt">Thread 4</text>
<text x="1010.000000" y="58.000000" style="font-size:6pt">Thread 5</text>
<text x="1010.000000" y="68.000000" style="font-size:6pt">Thread 6</text>
<text x="1010.000000" y="78.000000" style="font-size:6pt">Thread 7</text>
<text x="0" y="101.500000" style="font-size:6pt">Time (usec.)</text>
<line x1="100.000000" y1="89.900000" x2="100.000000" y2="91.900000"                      style="stroke:rgb(0,0,0);stroke-width:0.5"/>
<text x="100.000000" y="97.900000" style="font-size:6pt"> 1103396 </text>
<line x1="200.000000" y1="89.900000" x2="200.000000" y2="91.900000"                      style="stroke:rgb(0,0,0);stroke-width:0.5"/>
<text x="200.000000" y="97.900000" style="font-size:6pt"> 2206791 </text>
<line x1="300.000000" y1="89.900000" x2="300.000000" y2="91.900000"                      style="stroke:rgb(0,0,0);stroke-width:0.5"/>
<text x="300.000000" y="97.900000" style="font-size:6pt"> 3310187 </text>
<line x1="400.000000" y1="89.900000" x2="400.000000" y2="91.900000"                      style="stroke:rgb(0,0,0);stroke-width:0.5"/>
<text x="400.000000" y="97.900000" style="font-size:6pt"> 4413583 </text>
<line x1="500.000000" y1="89.900000" x2="500.000000" y2="91.900000"                      style="stroke:rgb(0,0,0);stroke-width:0.5"/>
<text x="500.000000" y="97.900000" style="font-size:6pt"> 5516978 </text>
<line x1="600.000000" y1="89.900000" x2="600.000000" y2="91.900000"                      style="stroke:rgb(0,0,0);stroke-width:0.5"/>
<text x="600.000000" y="97.900000" style="font-size:6pt"> 6620374 </text>
<line x1="700.000000" y1="89.900000" x2="700.000000" y2="91.900000"                      style="stroke:rgb(0,0,0);stroke-width:0.5"/>
<text x="700.000000" y="97.900000" style="font-size:6pt"> 7723770 </text>
<line x1="800.000000" y1="89.900000" x2="800.000000" y2="91.900000"                      style="stroke:rgb(0,0,0);stroke-width:0.5"/>
<text x="800.000000" y="97.900000" style="font-size:6pt"> 8827166 </text>
<line x1="900.000000" y1="89.900000" x2="900.000000" y2="91.900000"                      style="stroke:rgb(0,0,0);stroke-width:0.5"/>
<text x="900.000000" y="97.900000" style="font-size:6pt"> 9930561 </text>
<line x1="1000.000000" y1="89.900000" x2="1000.000000" y2="91.900000"                      style="stroke:rgb(0,0,0);stroke-width:0.5"/>
<text x="1000.000000" y="97.900000" style="font-size:6pt"> 11033957 </text>
</svg>
