<svg x="-11" y="-8" width="1060.000000" height="102.500000">
    <rect x="47.969368" y="0.000000" width="150.872163" height="10.000000" fill="#ffdd55" stroke-width="0"/>
    <rect x="231.434030" y="0.000000" width="115.544039" height="10.000000" fill="#ffdd55" stroke-width="0"/>
    <rect x="358.498615" y="0.000000" width="41.345998" height="10.000000" fill="#d38d5f" stroke-width="0"/>
    <rect x="399.845342" y="0.000000" width="99.796357" height="10.000000" fill="#ffdd55" stroke-width="0"/>
    <rect x="499.667127" y="0.000000" width="39.850680" height="10.000000" fill="#d38d5f" stroke-width="0"/>
    <rect x="539.517807" y="0.000000" width="90.295401" height="10.000000" fill="#ffdd55" stroke-width="0"/>
    <rect x="629.826327" y="0.000000" width="29.031108" height="10.000000" fill="#d38d5f" stroke-width="0"/>
    <rect x="658.857759" y="0.000000" width="83.168489" height="10.000000" fill="#ffdd55" stroke-width="0"/>
    <rect x="742.026410" y="0.000000" width="24.942449" height="10.000000" fill="#d38d5f" stroke-width="0"/>
    <rect x="766.969345" y="0.000000" width="62.381347" height="10.000000" fill="#ffdd55" stroke-width="0"/>
    <rect x="829.350773" y="0.000000" width="19.525536" height="10.000000" fill="#d38d5f" stroke-width="0"/>
    <rect x="47.969449" y="10.000000" width="138.885733" height="10.000000" fill="#ffdd55" stroke-width="0"/>
    <rect x="232.202056" y="10.000000" width="129.678658" height="10.000000" fill="#ffdd55" stroke-width="0"/>
    <rect x="399.845504" y="10.000000" width="105.197640" height="10.000000" fill="#ffdd55" stroke-width="0"/>
    <rect x="539.517888" y="10.000000" width="95.098233" height="10.000000" fill="#ffdd55" stroke-width="0"/>
    <rect x="658.857840" y="10.000000" width="80.021884" height="10.000000" fill="#ffdd55" stroke-width="0"/>
    <rect x="766.969426" y="10.000000" width="65.911722" height="10.000000" fill="#ffdd55" stroke-width="0"/>
    <rect x="0.001701" y="20.000000" width="47.965886" height="10.000000" fill="#d38d5f" stroke-width="0"/>
    <rect x="47.969368" y="20.000000" width="132.524418" height="10.000000" fill="#ffdd55" stroke-width="0"/>
    <rect x="180.493867" y="20.000000" width="106.745676" height="10.000000" fill="#ffdd55" stroke-width="0"/>
    <rect x="287.239624" y="20.000000" width="104.067709" height="10.000000" fill="#ffdd55" stroke-width="0"/>
    <rect x="399.845423" y="20.000000" width="117.358423" height="10.000000" fill="#ffdd55" stroke-width="0"/>
    <rect x="539.517888" y="20.000000" width="94.652998" height="10.000000" fill="#ffdd55" stroke-width="0"/>
    <rect x="658.857759" y="20.000000" width="55.799196" height="10.000000" fill="#ffdd55" stroke-width="0"/>
    <rect x="922.271179" y="20.000000" width="34.817376" height="10.000000" fill="#ffdd55" stroke-width="0"/>
    <rect x="47.969449" y="30.000000" width="146.047628" height="10.000000" fill="#ffdd55" stroke-width="0"/>
    <rect x="231.434030" y="30.000000" width="121.980748" height="10.000000" fill="#ffdd55" stroke-width="0"/>
    <rect x="399.845423" y="30.000000" width="87.696633" height="10.000000" fill="#ffdd55" stroke-width="0"/>
    <rect x="539.517888" y="30.000000" width="86.611486" height="10.000000" fill="#ffdd55" stroke-width="0"/>
    <rect x="658.857759" y="30.000000" width="65.134708" height="10.000000" fill="#ffdd55" stroke-width="0"/>
    <rect x="848.876714" y="30.000000" width="49.704390" height="10.000000" fill="#ffdd55" stroke-width="0"/>
    <rect x="47.969368" y="40.000000" width="135.637011" height="10.000000" fill="#ffdd55" stroke-width="0"/>
    <rect x="183.606460" y="40.000000" width="47.827246" height="10.000000" fill="#d38d5f" stroke-width="0"/>
    <rect x="231.434030" y="40.000000" width="127.064018" height="10.000000" fill="#ffdd55" stroke-width="0"/>
    <rect x="766.969426" y="40.000000" width="61.017462" height="10.000000" fill="#ffdd55" stroke-width="0"/>
    <rect x="922.271179" y="40.000000" width="35.174503" height="10.000000" fill="#ffdd55" stroke-width="0"/>
    <rect x="968.435153" y="40.000000" width="14.172599" height="10.000000" fill="#ffdd55" stroke-width="0"/>
    <rect x="982.607913" y="40.000000" width="3.859563" height="10.000000" fill="#d38d5f" stroke-width="0"/>
    <rect x="986.467558" y="40.000000" width="13.530094" height="10.000000" fill="#8dd35f" stroke-width="0"/>
    <rect x="47.969449" y="50.000000" width="139.213383" height="10.000000" fill="#ffdd55" stroke-width="0"/>
    <rect x="231.434111" y="50.000000" width="127.447221" height="10.000000" fill="#ffdd55" stroke-width="0"/>
    <rect x="399.845504" y="50.000000" width="114.849626" height="10.000000" fill="#ffdd55" stroke-width="0"/>
    <rect x="539.517888" y="50.000000" width="93.862865" height="10.000000" fill="#ffdd55" stroke-width="0"/>
    <rect x="766.969426" y="50.000000" width="63.963720" height="10.000000" fill="#ffdd55" stroke-width="0"/>
    <rect x="848.876714" y="50.000000" width="33.048828" height="10.000000" fill="#ffdd55" stroke-width="0"/>
    <rect x="47.969449" y="60.000000" width="137.569951" height="10.000000" fill="#ffdd55" stroke-width="0"/>
    <rect x="231.434111" y="60.000000" width="131.545112" height="10.000000" fill="#ffdd55" stroke-width="0"/>
    <rect x="399.845423" y="60.000000" width="104.460225" height="10.000000" fill="#ffdd55" stroke-width="0"/>
    <rect x="539.517888" y="60.000000" width="90.666699" height="10.000000" fill="#ffdd55" stroke-width="0"/>
    <rect x="658.857759" y="60.000000" width="60.598223" height="10.000000" fill="#ffdd55" stroke-width="0"/>
    <rect x="848.876714" y="60.000000" width="52.969471" height="10.000000" fill="#ffdd55" stroke-width="0"/>
    <rect x="901.846266" y="60.000000" width="20.424832" height="10.000000" fill="#d38d5f" stroke-width="0"/>
    <rect x="47.969368" y="70.000000" width="143.477771" height="10.000000" fill="#ffdd55" stroke-width="0"/>
    <rect x="231.434111" y="70.000000" width="123.978878" height="10.000000" fill="#ffdd55" stroke-width="0"/>
    <rect x="399.845423" y="70.000000" width="107.094705" height="10.000000" fill="#ffdd55" stroke-width="0"/>
    <rect x="957.445763" y="70.000000" width="10.988580" height="10.000000" fill="#d38d5f" stroke-width="0"/>
<line x1="0" y1="90.900000" x2="1020.000000" y2="90.900000"                      style="stroke:rgb(0,0,0);stroke-width:1"/>
<text x="1010.000000" y="8.000000" style="font-size:6pt">Thread 0</text>
<text x="1010.000000" y="18.000000" style="font-size:6pt">Thread 1</text>
<text x="1010.000000" y="28.000000" style="font-size:6pt">Thread 2</text>
<text x="1010.000000" y="38.000000" style="font-size:6pt">Thread 3</text>
<text x="1010.000000" y="48.000000" style="font-size:6pt">Thread 4</text>
<text x="1010.000000" y="58.000000" style="font-size:6pt">Thread 5</text>
<text x="1010.000000" y="68.000000" style="font-size:6pt">Thread 6</text>
<text x="1010.000000" y="78.000000" style="font-size:6pt">Thread 7</text>
<text x="0" y="101.500000" style="font-size:6pt">Time (usec.)</text>
<line x1="100.000000" y1="89.900000" x2="100.000000" y2="91.900000"                      style="stroke:rgb(0,0,0);stroke-width:0.5"/>
<text x="100.000000" y="97.900000" style="font-size:6pt"> 1234855 </text>
<line x1="200.000000" y1="89.900000" x2="200.000000" y2="91.900000"                      style="stroke:rgb(0,0,0);stroke-width:0.5"/>
<text x="200.000000" y="97.900000" style="font-size:6pt"> 2469709 </text>
<line x1="300.000000" y1="89.900000" x2="300.000000" y2="91.900000"                      style="stroke:rgb(0,0,0);stroke-width:0.5"/>
<text x="300.000000" y="97.900000" style="font-size:6pt"> 3704564 </text>
<line x1="400.000000" y1="89.900000" x2="400.000000" y2="91.900000"                      style="stroke:rgb(0,0,0);stroke-width:0.5"/>
<text x="400.000000" y="97.900000" style="font-size:6pt"> 4939419 </text>
<line x1="500.000000" y1="89.900000" x2="500.000000" y2="91.900000"                      style="stroke:rgb(0,0,0);stroke-width:0.5"/>
<text x="500.000000" y="97.900000" style="font-size:6pt"> 6174274 </text>
<line x1="600.000000" y1="89.900000" x2="600.000000" y2="91.900000"                      style="stroke:rgb(0,0,0);stroke-width:0.5"/>
<text x="600.000000" y="97.900000" style="font-size:6pt"> 7409128 </text>
<line x1="700.000000" y1="89.900000" x2="700.000000" y2="91.900000"                      style="stroke:rgb(0,0,0);stroke-width:0.5"/>
<text x="700.000000" y="97.900000" style="font-size:6pt"> 8643983 </text>
<line x1="800.000000" y1="89.900000" x2="800.000000" y2="91.900000"                      style="stroke:rgb(0,0,0);stroke-width:0.5"/>
<text x="800.000000" y="97.900000" style="font-size:6pt"> 9878838 </text>
<line x1="900.000000" y1="89.900000" x2="900.000000" y2="91.900000"                      style="stroke:rgb(0,0,0);stroke-width:0.5"/>
<text x="900.000000" y="97.900000" style="font-size:6pt"> 11113692 </text>
<line x1="1000.000000" y1="89.900000" x2="1000.000000" y2="91.900000"                      style="stroke:rgb(0,0,0);stroke-width:0.5"/>
<text x="1000.000000" y="97.900000" style="font-size:6pt"> 12348547 </text>
</svg>
